<mxfile host="app.diagrams.net" agent="Mozilla/5.0 (Windows NT 10.0; Win64; x64) AppleWebKit/537.36 (KHTML, like Gecko) Chrome/137.0.0.0 Safari/537.36 OPR/121.0.0.0" version="28.2.4">
  <diagram name="Página-1" id="mXZYl64TImKxE9nwr8pG">
    <mxGraphModel dx="1381" dy="775" grid="1" gridSize="10" guides="1" tooltips="1" connect="1" arrows="1" fold="1" page="1" pageScale="1" pageWidth="827" pageHeight="1169" math="0" shadow="0">
      <root>
        <mxCell id="0" />
        <mxCell id="1" parent="0" />
        <mxCell id="-Y-EHWKwXSZfCZ-6Ars3-1" value="PARADO" style="ellipse;whiteSpace=wrap;html=1;" vertex="1" parent="1">
          <mxGeometry x="350" y="260" width="120" height="80" as="geometry" />
        </mxCell>
        <mxCell id="-Y-EHWKwXSZfCZ-6Ars3-2" value="PULANDO" style="ellipse;whiteSpace=wrap;html=1;" vertex="1" parent="1">
          <mxGeometry x="350" y="90" width="120" height="80" as="geometry" />
        </mxCell>
        <mxCell id="-Y-EHWKwXSZfCZ-6Ars3-3" value="ANDANDO&lt;div&gt;PARA&lt;/div&gt;&lt;div&gt;DIREITA&lt;/div&gt;" style="ellipse;whiteSpace=wrap;html=1;" vertex="1" parent="1">
          <mxGeometry x="640" y="260" width="120" height="80" as="geometry" />
        </mxCell>
        <mxCell id="-Y-EHWKwXSZfCZ-6Ars3-4" value="ANDANDO&lt;div&gt;PARA&lt;/div&gt;&lt;div&gt;ESQUERDA&lt;/div&gt;" style="ellipse;whiteSpace=wrap;html=1;" vertex="1" parent="1">
          <mxGeometry x="60" y="260" width="120" height="80" as="geometry" />
        </mxCell>
        <mxCell id="-Y-EHWKwXSZfCZ-6Ars3-6" value="" style="endArrow=classic;html=1;rounded=0;entryX=0;entryY=0.5;entryDx=0;entryDy=0;exitX=1;exitY=0.5;exitDx=0;exitDy=0;" edge="1" parent="1" source="-Y-EHWKwXSZfCZ-6Ars3-1" target="-Y-EHWKwXSZfCZ-6Ars3-3">
          <mxGeometry width="50" height="50" relative="1" as="geometry">
            <mxPoint x="520" y="340" as="sourcePoint" />
            <mxPoint x="570" y="290" as="targetPoint" />
          </mxGeometry>
        </mxCell>
        <mxCell id="-Y-EHWKwXSZfCZ-6Ars3-7" value="PRESSIONAR (SETA DIREITA)" style="text;html=1;align=center;verticalAlign=middle;whiteSpace=wrap;rounded=0;" vertex="1" parent="1">
          <mxGeometry x="500" y="260" width="100" height="30" as="geometry" />
        </mxCell>
        <mxCell id="-Y-EHWKwXSZfCZ-6Ars3-8" value="" style="endArrow=classic;html=1;rounded=0;exitX=0;exitY=0.5;exitDx=0;exitDy=0;entryX=1;entryY=0.5;entryDx=0;entryDy=0;" edge="1" parent="1" source="-Y-EHWKwXSZfCZ-6Ars3-1" target="-Y-EHWKwXSZfCZ-6Ars3-4">
          <mxGeometry width="50" height="50" relative="1" as="geometry">
            <mxPoint x="240" y="290" as="sourcePoint" />
            <mxPoint x="290" y="240" as="targetPoint" />
          </mxGeometry>
        </mxCell>
        <mxCell id="-Y-EHWKwXSZfCZ-6Ars3-9" value="PRESSIONAR (SETA ESQUERDA&lt;span style=&quot;background-color: transparent; color: light-dark(rgb(0, 0, 0), rgb(255, 255, 255));&quot;&gt;)&lt;/span&gt;" style="text;html=1;align=center;verticalAlign=middle;whiteSpace=wrap;rounded=0;" vertex="1" parent="1">
          <mxGeometry x="210" y="260" width="110" height="30" as="geometry" />
        </mxCell>
        <mxCell id="-Y-EHWKwXSZfCZ-6Ars3-10" value="" style="endArrow=classic;html=1;rounded=0;entryX=0.5;entryY=1;entryDx=0;entryDy=0;exitX=0.5;exitY=0;exitDx=0;exitDy=0;" edge="1" parent="1" source="-Y-EHWKwXSZfCZ-6Ars3-1" target="-Y-EHWKwXSZfCZ-6Ars3-2">
          <mxGeometry width="50" height="50" relative="1" as="geometry">
            <mxPoint x="320" y="450" as="sourcePoint" />
            <mxPoint x="370" y="400" as="targetPoint" />
          </mxGeometry>
        </mxCell>
        <mxCell id="-Y-EHWKwXSZfCZ-6Ars3-13" value="PULANDO&amp;nbsp;&lt;div&gt;PARA&lt;/div&gt;&lt;div&gt;ESQUERDA&lt;/div&gt;" style="ellipse;whiteSpace=wrap;html=1;" vertex="1" parent="1">
          <mxGeometry x="60" y="90" width="120" height="80" as="geometry" />
        </mxCell>
        <mxCell id="-Y-EHWKwXSZfCZ-6Ars3-14" value="PULANDO&amp;nbsp;&lt;div&gt;PARA&lt;/div&gt;&lt;div&gt;DIREITA&lt;/div&gt;" style="ellipse;whiteSpace=wrap;html=1;" vertex="1" parent="1">
          <mxGeometry x="640" y="90" width="120" height="80" as="geometry" />
        </mxCell>
        <mxCell id="-Y-EHWKwXSZfCZ-6Ars3-16" value="" style="endArrow=classic;html=1;rounded=0;entryX=0.5;entryY=1;entryDx=0;entryDy=0;exitX=0.5;exitY=0;exitDx=0;exitDy=0;" edge="1" parent="1" source="-Y-EHWKwXSZfCZ-6Ars3-4" target="-Y-EHWKwXSZfCZ-6Ars3-13">
          <mxGeometry width="50" height="50" relative="1" as="geometry">
            <mxPoint x="200" y="220" as="sourcePoint" />
            <mxPoint x="250" y="170" as="targetPoint" />
          </mxGeometry>
        </mxCell>
        <mxCell id="-Y-EHWKwXSZfCZ-6Ars3-17" value="" style="endArrow=classic;html=1;rounded=0;entryX=0.5;entryY=1;entryDx=0;entryDy=0;exitX=0.5;exitY=0;exitDx=0;exitDy=0;" edge="1" parent="1" source="-Y-EHWKwXSZfCZ-6Ars3-3" target="-Y-EHWKwXSZfCZ-6Ars3-14">
          <mxGeometry width="50" height="50" relative="1" as="geometry">
            <mxPoint x="480" y="420" as="sourcePoint" />
            <mxPoint x="530" y="370" as="targetPoint" />
          </mxGeometry>
        </mxCell>
        <mxCell id="-Y-EHWKwXSZfCZ-6Ars3-18" value="PRESSIONAR (ESPAÇO)" style="text;html=1;align=center;verticalAlign=middle;whiteSpace=wrap;rounded=0;" vertex="1" parent="1">
          <mxGeometry x="20" y="200" width="100" height="30" as="geometry" />
        </mxCell>
        <mxCell id="-Y-EHWKwXSZfCZ-6Ars3-19" value="PRESSIONAR (ESPAÇO)" style="text;html=1;align=center;verticalAlign=middle;whiteSpace=wrap;rounded=0;" vertex="1" parent="1">
          <mxGeometry x="700" y="200" width="100" height="30" as="geometry" />
        </mxCell>
        <mxCell id="-Y-EHWKwXSZfCZ-6Ars3-20" value="PRESSIONAR (ESPAÇO)" style="text;html=1;align=center;verticalAlign=middle;whiteSpace=wrap;rounded=0;" vertex="1" parent="1">
          <mxGeometry x="410" y="200" width="100" height="30" as="geometry" />
        </mxCell>
        <mxCell id="-Y-EHWKwXSZfCZ-6Ars3-21" value="" style="endArrow=classic;html=1;rounded=0;entryX=0;entryY=0.5;entryDx=0;entryDy=0;exitX=1;exitY=0.5;exitDx=0;exitDy=0;" edge="1" parent="1">
          <mxGeometry width="50" height="50" relative="1" as="geometry">
            <mxPoint x="470" y="130" as="sourcePoint" />
            <mxPoint x="640" y="130" as="targetPoint" />
          </mxGeometry>
        </mxCell>
        <mxCell id="-Y-EHWKwXSZfCZ-6Ars3-22" value="PRESSIONAR (SETA DIREITA)" style="text;html=1;align=center;verticalAlign=middle;whiteSpace=wrap;rounded=0;" vertex="1" parent="1">
          <mxGeometry x="500" y="90" width="100" height="30" as="geometry" />
        </mxCell>
        <mxCell id="-Y-EHWKwXSZfCZ-6Ars3-23" value="" style="endArrow=classic;html=1;rounded=0;exitX=0;exitY=0.5;exitDx=0;exitDy=0;entryX=1;entryY=0.5;entryDx=0;entryDy=0;" edge="1" parent="1">
          <mxGeometry width="50" height="50" relative="1" as="geometry">
            <mxPoint x="350" y="130" as="sourcePoint" />
            <mxPoint x="180" y="130" as="targetPoint" />
          </mxGeometry>
        </mxCell>
        <mxCell id="-Y-EHWKwXSZfCZ-6Ars3-24" value="PRESSIONAR (SETA ESQUERDA&lt;span style=&quot;background-color: transparent; color: light-dark(rgb(0, 0, 0), rgb(255, 255, 255));&quot;&gt;)&lt;/span&gt;" style="text;html=1;align=center;verticalAlign=middle;whiteSpace=wrap;rounded=0;" vertex="1" parent="1">
          <mxGeometry x="210" y="90" width="110" height="30" as="geometry" />
        </mxCell>
        <mxCell id="-Y-EHWKwXSZfCZ-6Ars3-26" value="SOLTAR&lt;div&gt;(SETA DIREITA)&lt;/div&gt;" style="text;html=1;align=center;verticalAlign=middle;whiteSpace=wrap;rounded=0;" vertex="1" parent="1">
          <mxGeometry x="510" y="370" width="100" height="30" as="geometry" />
        </mxCell>
        <mxCell id="-Y-EHWKwXSZfCZ-6Ars3-30" value="" style="curved=1;endArrow=classic;html=1;rounded=0;entryX=0.242;entryY=0.975;entryDx=0;entryDy=0;entryPerimeter=0;exitX=0.625;exitY=1;exitDx=0;exitDy=0;exitPerimeter=0;" edge="1" parent="1" source="-Y-EHWKwXSZfCZ-6Ars3-4" target="-Y-EHWKwXSZfCZ-6Ars3-1">
          <mxGeometry width="50" height="50" relative="1" as="geometry">
            <mxPoint x="220" y="380" as="sourcePoint" />
            <mxPoint x="270" y="330" as="targetPoint" />
            <Array as="points">
              <mxPoint x="270" y="380" />
            </Array>
          </mxGeometry>
        </mxCell>
        <mxCell id="-Y-EHWKwXSZfCZ-6Ars3-31" value="SOLTAR&lt;div&gt;(SETA ESQUERDA)&lt;/div&gt;" style="text;html=1;align=center;verticalAlign=middle;whiteSpace=wrap;rounded=0;" vertex="1" parent="1">
          <mxGeometry x="205" y="370" width="115" height="30" as="geometry" />
        </mxCell>
        <mxCell id="-Y-EHWKwXSZfCZ-6Ars3-32" value="MÁQUINA DE ESTADOS - PERSONAGEM PRINCIPAL" style="text;html=1;align=center;verticalAlign=middle;whiteSpace=wrap;rounded=0;" vertex="1" parent="1">
          <mxGeometry x="249" y="20" width="330" height="30" as="geometry" />
        </mxCell>
        <mxCell id="-Y-EHWKwXSZfCZ-6Ars3-34" value="" style="curved=1;endArrow=classic;html=1;rounded=0;exitX=0.5;exitY=1;exitDx=0;exitDy=0;entryX=0.6;entryY=1;entryDx=0;entryDy=0;entryPerimeter=0;" edge="1" parent="1" source="-Y-EHWKwXSZfCZ-6Ars3-3" target="-Y-EHWKwXSZfCZ-6Ars3-1">
          <mxGeometry width="50" height="50" relative="1" as="geometry">
            <mxPoint x="490" y="390" as="sourcePoint" />
            <mxPoint x="540" y="340" as="targetPoint" />
            <Array as="points">
              <mxPoint x="540" y="390" />
            </Array>
          </mxGeometry>
        </mxCell>
      </root>
    </mxGraphModel>
  </diagram>
</mxfile>
